<mxfile host="app.diagrams.net" modified="2023-10-11T17:01:15.723Z" agent="Mozilla/5.0 (Macintosh; Intel Mac OS X 10_15_7) AppleWebKit/537.36 (KHTML, like Gecko) Chrome/118.0.0.0 Safari/537.36" etag="gLz7_ZyMkxIfy5oso9nX" version="22.0.4" type="github">
  <diagram name="DCU-CLIENT" id="I69ZrJ3DVeAubqPHy6Zh">
    <mxGraphModel dx="1103" dy="608" grid="1" gridSize="10" guides="1" tooltips="1" connect="1" arrows="1" fold="1" page="1" pageScale="1" pageWidth="827" pageHeight="1169" math="0" shadow="0">
      <root>
        <mxCell id="0" />
        <mxCell id="1" parent="0" />
        <mxCell id="lfuO3ys3iuQYlo4a9l6P-1" value="CLIENT" style="shape=umlActor;verticalLabelPosition=bottom;verticalAlign=top;html=1;outlineConnect=0;" vertex="1" parent="1">
          <mxGeometry x="120" y="220" width="30" height="60" as="geometry" />
        </mxCell>
        <mxCell id="lfuO3ys3iuQYlo4a9l6P-2" value="Consulter la liste des candidates" style="ellipse;whiteSpace=wrap;html=1;" vertex="1" parent="1">
          <mxGeometry x="300" y="190" width="120" height="80" as="geometry" />
        </mxCell>
        <mxCell id="lfuO3ys3iuQYlo4a9l6P-3" value="" style="endArrow=none;html=1;rounded=0;" edge="1" parent="1" source="lfuO3ys3iuQYlo4a9l6P-1" target="lfuO3ys3iuQYlo4a9l6P-2">
          <mxGeometry width="50" height="50" relative="1" as="geometry">
            <mxPoint x="340" y="330" as="sourcePoint" />
            <mxPoint x="390" y="280" as="targetPoint" />
          </mxGeometry>
        </mxCell>
        <mxCell id="lfuO3ys3iuQYlo4a9l6P-4" value="Consulter les informations des candidates" style="ellipse;whiteSpace=wrap;html=1;" vertex="1" parent="1">
          <mxGeometry x="490" y="90" width="120" height="80" as="geometry" />
        </mxCell>
        <mxCell id="lfuO3ys3iuQYlo4a9l6P-6" value="Voter" style="ellipse;whiteSpace=wrap;html=1;" vertex="1" parent="1">
          <mxGeometry x="490" y="290" width="120" height="80" as="geometry" />
        </mxCell>
        <mxCell id="lfuO3ys3iuQYlo4a9l6P-8" value="&amp;lt;&amp;lt;extend&amp;gt;&amp;gt;" style="html=1;verticalAlign=bottom;labelBackgroundColor=none;endArrow=open;endFill=0;dashed=1;rounded=0;" edge="1" parent="1" source="lfuO3ys3iuQYlo4a9l6P-2" target="lfuO3ys3iuQYlo4a9l6P-6">
          <mxGeometry width="160" relative="1" as="geometry">
            <mxPoint x="290" y="300" as="sourcePoint" />
            <mxPoint x="450" y="300" as="targetPoint" />
          </mxGeometry>
        </mxCell>
        <mxCell id="lfuO3ys3iuQYlo4a9l6P-10" value="&amp;lt;&amp;lt;extend&amp;gt;&amp;gt;" style="html=1;verticalAlign=bottom;labelBackgroundColor=none;endArrow=open;endFill=0;dashed=1;rounded=0;" edge="1" parent="1" source="lfuO3ys3iuQYlo4a9l6P-2" target="lfuO3ys3iuQYlo4a9l6P-4">
          <mxGeometry width="160" relative="1" as="geometry">
            <mxPoint x="470" y="120" as="sourcePoint" />
            <mxPoint x="590" y="190" as="targetPoint" />
          </mxGeometry>
        </mxCell>
      </root>
    </mxGraphModel>
  </diagram>
</mxfile>
